<?xml version="1.0" encoding="utf-8"?>
<!-- Generator: Adobe Illustrator 19.0.0, SVG Export Plug-In . SVG Version: 6.00 Build 0)  -->
<svg version="1.1" id="Capa_1" xmlns="http://www.w3.org/2000/svg" xmlns:xlink="http://www.w3.org/1999/xlink" x="0px" y="0px"
	 viewBox="0 0 320.4 321.1" style="enable-background:new 0 0 320.4 321.1;" xml:space="preserve">
<style type="text/css">
	.st0{fill-rule:evenodd;clip-rule:evenodd;fill:#FFFFFF;}
</style>
<path class="st0" d="M148.2,283.9l4.3-7.9c-23.8-1-46.6-10.4-63.8-23.3c-6-4.5-10.5-8.8-15.4-13.9c-14.3-14.7-25.5-36.4-29.6-57.8
	c-2.5-13.1-2.9-26.8-0.9-40.1c1.8-12.1,5.2-23,10.3-33.7c12.3-26,33.3-45.7,59.3-57.3c13.5-6,29.9-9.8,48.6-9.7
	c63.8,0.3,115.9,53,116.6,116.4c0.3,29.2-9.4,54.5-26.3,75.7c-2.3,2.8-4.5,5.2-6.9,7.8c-7.7,8.5-21.8,18.9-33.9,24.5
	c-6.9,3.2-13.1,5.6-21.2,7.8c-7.2,1.9-17,3.6-25.5,3.8c0.9,1.4,4,7.1,4.8,7.8c3.5-0.6,8.2-0.8,13.6-1.7c50.8-9.2,90.9-48.8,101-99.4
	c5.4-27.3,1.5-54.7-9.6-78.4C266.8,90,257.7,78.2,248,68.4c-18.4-18.3-49.5-36.2-87.3-36.3c-38.9-0.1-68.9,16.3-88.4,35
	c-19.5,18.7-36.5,46.6-38.8,84.5c-2.3,38.2,14.6,72.1,32.3,91c10,10.7,20.3,19.4,34.7,27C113.1,276.4,129.9,282.4,148.2,283.9z"/>
<path class="st0" d="M81.8,170.4l5,1c0.5,5.1,3.8,13.6,6,18.2c6.8,14.4,18.9,26.7,33.1,33.9c1.5,0.8,2.5,1.4,4.1,2.1
	c0.9-2.3,5.6-10.3,7.1-13.6c0.7-1.4,4.1-13.8,4.6-16c-2.2-1.5-7.9-2.1-15.5-9.9c-4.3-4.4-7.1-9.7-9.2-16.2
	c-14.3,1.7-17.1,0.5-30.3-1.4c0.6-1.6,9.1-13.1,10.7-14.8c1.8-2.1,11.6-10.2,13.8-11.6c0-2.6-0.3-6.8-0.6-9.5
	c-0.3-2.9-0.2-7.2-0.1-10.2c0.2-6.8,1.8-11.6,4.6-15.8c6.7-10.5,7.5-7.1,12.1-8.3c2.4-0.6,5.1-1.8,7.7-2.6
	c9.8-3.3,14.3-4.3,24.5-6.3c3.3-0.6,14.7-3.2,17.6-2.9c6.8,0.8,8.3,4.6,11.4,9c1.5,2.1,2.8,4,4.2,6.1c1.4,2,2.9,4.1,4.2,6.1
	c4.4,0,10.7,0.8,14.8,1.5c3.2,0.6,3.5,0.7,5.9,2.3c6.9,4.5,7.2,5.5,3.5,8.2l-14.5,10.5c0.6,1.3,1.4,2.2,2.1,3.5
	c4.6,9.2,6.2,22.6,2.5,31.8c-3.3,8.3-9.3,16.7-16.2,22.4c-0.9,0.8-2.5,1.7-3.2,2.6c1.5,1,19.3,18,20.6,18.8c1.5-0.8,1.7-2,2.4-2.9
	l4.2-5.2c2.1-2.9,4-5.8,5.7-9.1c9.6-18.3,11.4-41.1,3.7-60.6c-0.7-1.9-1.4-3.4-2.2-5.2c-0.6-1.2-2.2-4-2.4-5.1
	c1.6-0.8,3.3-2.9,2.2-5.7c-1-2.6-6.7-6.5-9.3-7.8c-3.3-1.6-2.4,0.5-5.8-2.9c-5.7-5.7-12.1-10-20.3-14.1c-4.9-2.4-1.2,0.1-4.9-3.5
	c-3.6-3.3-8-4.1-12.9-3.4c-6.4,1-2.2,0.4-7.6,0.1c-29.3-1.5-53.1,10.7-68.3,34c-7.2,11-11.6,25.5-11.6,39.7c0,2.2,0.8,6.2-0.1,7.6
	C84.1,167,82.7,168.7,81.8,170.4z"/>
<path class="st0" d="M122,169.5c0.1,2.6,4,8.9,5.3,10.6c8.1,10.6,19.8,14,34.6,14c13.8,0,24.2-4.4,31.5-11.1
	c5.2-4.8,15-16.9,15-27.7c0-5.9-1.2-12.6-3.4-17.8l-1.8-3.4c-0.1-0.2-0.2-0.4-0.4-0.6c-0.5-0.5-0.1-0.2-0.6-0.5
	c-0.7,0.8-3.1,2.3-4.2,3c-1.5,1-2.8,1.8-4.3,2.9c-9,6.2-37.3,23.2-46.2,26.7C141.7,167.8,128.6,169.2,122,169.5z"/>
<path class="st0" d="M86.9,213.4l1.4,1.4c-1.4,2.2-7.9,8.9-10.1,11.8l-1.7-1.2c-1.2,1.7-4.3,4.5-5.1,6.1c2.1,1.4,6.9,6.3,8.9,7.5
	c1-0.7,5.9-6.7,7.5-8.4l1.3-1.2L87.5,241l10.8-3.7c-0.9,1.8-6.7,7.6-8.4,10c0.4,0.7,8,7.3,8.9,7.7c1.1-1.2,4.6-4.9,5.1-6l-1.3-1.2
	c0.6-1.7,8.4-9.5,9.9-11.8c1,0.4,0.7,0.7,1.8,1c0.9-1.7,4.4-4.6,4.9-6.1l-6.6-5.6c-0.8-0.7-1.3-1.5-2.3-1.2c-4,1.2-8.2,3.1-12.3,4.3
	c0.2-2,0.8-4.6,1.2-6.7c0.4-1.9,1.2-5.1,1.2-7l-8.4-7.2C90.8,208.6,87.7,212.1,86.9,213.4z"/>
<path class="st0" d="M219.7,213.4c1.3,1.9,6.9,6.8,8.1,8.6l-12.9-4.1c-1.5,1.1-6.1,6.1-8.2,7.8c0.5,0.8,4.8,5.3,5.7,5.8l1.4-1.4
	l10.8,11.3l-1.5,1.4c0.5,0.8,4.9,5.4,5.6,5.8l4.1-4c1.4-1.3,2.9-3,4.3-4.1c-1.1-1.8-7-6.9-8.4-8.9l12.9,4.2c1.2-1,6.2-5.5,6.7-6.4
	l-16.2-16.8l1.3-1.5c-1.6-2-3.4-3.6-5.4-5.6L219.7,213.4z"/>
<path class="st0" d="M167.4,239.4l1,11.8l-7.5-11.2l-11.3,0.9l0.7,8l2.1-0.1l1.4,15.3c-0.5,0.4-1.4,0.4-2.2,0.4l0.7,7.9l11.8-1
	l-1-12.1l7.5,11.4l9.3-0.7l-2.1-23.3l1.9-0.4l-0.6-7.8L167.4,239.4z"/>
<path class="st0" d="M171.3,210.3l3.8,19.7c4.9-0.5,11.2-3.7,11.8-3.8c4.7-0.9,19.5-10.4,21.6-13.3l-19.2-17.7c-4,2.2-8,6.2-11,9.6
	c-0.7,0.8-1.3,1.2-2,2.1C174.3,209.2,174.5,209,171.3,210.3z"/>
<path class="st0" d="M78.1,196.8l1,2.4c-0.8,0.7-2.4,1.2-3.5,1.7l-1.1-2.6L78.1,196.8L78.1,196.8z M73.5,185.5l0.6,1.9l-14.3,6.3
	L59,192l-7.1,3.1l4.8,11l11.1-4.8l1.1,2.6c-2.6,1.8-8.3,2.8-9.6,5.3c-1.2,2.2,2.1,6.9,3.5,10.7c1.2-0.5,6.5-2.7,7.2-3.4l-0.7-1.8
	c5.2-2.4,4.7-2.3,6-5.3c0,0,0.1-0.1,0.1-0.2c0,0,0.1-0.1,0.1-0.2c1.5,0.8,2.8,1.2,4.7,0.6c4.3-1.4,10.4-3.8,8.3-10l-3.8-8.6
	c-1.2-2.8-2.7-5.8-3.8-8.7L73.5,185.5z"/>
<path class="st0" d="M130.9,61.5c0.7,0.8,2,3.6,2.2,4.8l-1.6,0.2L130.9,61.5L130.9,61.5z M120.3,52l2.3,23.6
	c-0.5,0.5-0.8,0.4-1.4,0.6l-0.7,0.3l2.1,7.5l11.2-3.1l-1.1-7.3l3.4-1l2.7,6.7l11-3.1l-2.2-7.7l-2.1,0.5L134.7,48L120.3,52z"/>
<path class="st0" d="M174.1,76.8l0-19.7l-11.5,0l0,7.9l2,0.1l0,3.7l-2.9,0.1l0-13.9c0-2.3,0.6-1.6,3-1.6l0.1,2.4
	c1.8,0,7.6,0.2,9-0.1l0-10.1c-1.5-0.3-16.9-0.4-18.4,0.3c-4.5,2.1-3.6,9.5-3.6,15.4c0,6.1-1.2,13.5,3.7,15.2
	C157.6,77.2,170.9,76.8,174.1,76.8z"/>
<path class="st0" d="M130.9,247.4c-0.1,1.2-0.4,2.5-0.6,3.8c-0.1,0.8,0.1,2.2-1.9,0.8L130.9,247.4L130.9,247.4z M115.9,254.5
	l-2.2-0.6l-2.6,7.6l10.9,3.7l3.2-6.4l3.4,1l-1.5,7.2l10.8,3.3l2.5-7.2l-1.9-0.8l3.2-23.7l-14.1-4.9L115.9,254.5z"/>
<path class="st0" d="M187.1,73.2c0.2-1.3,3.4-10.1,4.3-12.7l0.8-1.8l2.4,0.8l-5.1,14.7L187.1,73.2L187.1,73.2z M187.5,49.6
	c-4.1,1.1-4.1,4-6,9.4c-1.3,3.9-2.6,7.7-4,11.6c-1.7,4.9-1.5,7.3,4.3,9.3c2.5,0.9,9.8,3.9,12.2,3.3c3.8-1,4.7-5.6,6-9.4
	c1.4-3.9,2.6-7.7,4-11.6c0.7-2.1,1.6-4,0.4-6.3c-1.1-2-2.3-2.4-4.7-3.2C196.8,51.7,190.3,48.9,187.5,49.6z"/>
<path class="st0" d="M122.3,140.3l-9.4-0.6l0.5,4.7c5.1,1.7,8.5,2.4,14.9,2.5c14.3,0.1,30.1-6.2,39.8-11.7
	c7.5-4.2,16.5-10.1,22.6-16c1.4-1.3,5.5-5.1,6.3-6.7l-3.4-4.1c-1.1,0.5-2.3,1.9-3.4,2.8c-2.9,2.6-7.8,6.4-10.9,8.5
	C163.4,130.7,143.7,140.3,122.3,140.3z"/>
<path class="st0" d="M69.6,156l0.1,2.2l-15.6,1.1l-0.1-2l-8.1,0.5l1.7,23.7l11.4-0.7l-0.7-9.1l-3.4,0.3l-0.2-2.9l4.5-0.3
	c0.9,7.4-2.2,6.7,7.7,5.9c0.2-1.2-0.1-5.1-0.3-6.3l3.8-0.4l0.2,2.9l-2.8,0.3l0.6,8.4l10.6-0.7l-1.6-23.2
	C76.3,155.3,71.3,156,69.6,156z"/>
<path class="st0" d="M239.9,175.6l7.9,0.5l0.2-2.1l15.5,1.1l-0.1,2.1l7.9,0.5L273,154l-10.7-0.8c-0.6,0.1-0.2-0.1-0.5,0.2
	c-0.3,0.5-0.7,7.6-0.8,8.7l3.4,0.3l-0.1,2.5c-0.8,0.5-0.4,0.3-2,0.1c-0.8-0.1-1.6-0.1-2.3-0.1l0.3-6.4l-7.4-0.6l-0.4,6.3l-3.7-0.2
	l0.1-2.8l2.8,0.1l0.5-8.6l-10.6-0.7L239.9,175.6z"/>
<path class="st0" d="M182,237.6l3.2,7.2l1.9-0.7l6.6,13.9l-1.8,1l3.3,7.2l21.7-10l-4.8-10.4l-8.1,3.8c0.3,1.1,1,2,1.2,3.1l-2.4,1.2
	l-1.9-4.1l5.7-2.6l-3.1-6.8l-5.8,2.7l-1.5-3.4l2.7-1.2l1,2.4c0.5-0.1,7-2.9,7.7-3.6l-4.4-9.6L182,237.6z"/>
<path class="st0" d="M215.4,82.6l-2.3,3.3l-2.2-1.4l1.5-2.3c-0.7-0.8-6.6-4.9-7.8-5.5l-6.2,8.8c0.2,0.4-0.1,0,0.4,0.5
	c1.7,1.5,13.7,9.6,14.4,9.8c5.1,1.7,7.5-3.7,9.6-6.6c3.1-4.4,4.3-7.4-0.7-11c-1.5-1.1-3.5-2.2-4.8-3.4l2-3c1,0.3,1.7,1,2.4,1.5
	l-1.4,2.2l7.2,5.1c0.7-0.6,5.8-7.8,6.1-8.7c-3.3-1.8-11.9-8.9-14.6-9.7c-5.2-1.6-7.1,2.9-9.4,6.2C203,77.9,212.6,79.2,215.4,82.6z"
	/>
<path class="st0" d="M250.4,136.1l-3.5,1.1c-0.4-0.6-0.7-1.9-0.8-2.8l2.4-0.7l-2.4-8.5l-10,2.8c0,1.3,1.1,4.3,1.5,5.8
	c0.7,2.5,2.5,9.7,3.7,11.4c1,1.3,2.7,2.7,5.3,2.3c1.5-0.2,4.3-1.2,5.8-1.6c10.7-3,5.1-9.2,4.5-14.7l4.1-1.1l0.7,2.6l-2.7,0.7
	l2.6,9.2l10.5-3c-0.6-2.3-4.3-16.2-5.4-17.6c-3.2-4-7.2-1.8-11.5-0.5c-2.4,0.7-3.9,0.9-5.4,2.6C246.6,127.6,249.8,132.1,250.4,136.1
	z"/>
<path class="st0" d="M97,64.2l4.4,6.5l1.6-0.9l3.7,8.7c-1.6-1-9.8-10-12.4-12.4l-8.7,5.8c0.5,1.2,3.8,6,4.5,6.6l1.6-1
	c1.5,1,16,15.8,17.3,16.6l11-7.3l-8.6-22.4l1.7-1.3c-0.4-1.3-3.4-5.1-4.3-6.7L97,64.2z"/>
<path class="st0" d="M67.1,139c0.1-0.8,0.3-2,0.7-2.5l4,0.9c-0.1,0.9-0.3,2-0.7,2.8L67.1,139L67.1,139z M48.9,134.1l7.6,1.8l0.7-2
	l3.6,0.8c-0.4,4.6-3.7,9.2,0.2,12.4c1.5,1.2,11.5,3.3,12.5,3.3c4.8-0.2,5.1-5.5,6.1-9.8l2.9-13.2l-7.5-1.7c0,0.1-0.1,0.1-0.1,0.2
	l-0.3,0.7c-0.2,0.6,0,0.5-0.4,1l-14.9-3.3l0.3-2.1l-7.8-1.7L48.9,134.1z"/>
<path class="st0" d="M228.6,204c0.9,0.6,10.6,4.9,11.6,5.1l3-7c-2.1-1.5-5-1.5-4-2.7c0.5-0.6,6.6,2.5,7.1,2.8
	c2.4,1.1,4.9,2.2,7.3,3.3l-0.7,1.7l7.2,3.2c0.9-1,2.3-4.8,2.9-6.3c0.9-2,1.8-4.3,2.8-6.3c-0.9-0.8-5.7-2.6-7.1-3.3l-0.9,1.6
	l-14.2-6.2l0.4-0.9l4.4,1.9l3.1-7l-11.5-5.2c-0.7,0.5-1.1,2.1-1.5,3C237,184.9,228.9,202.5,228.6,204z"/>
<path class="st0" d="M158.5,284.4c1.1,1,15,25.7,15.1,26.2l-29.2-0.1L158.5,284.4L158.5,284.4z M138.8,313c0.3,1.7,1.9,1.3,3.6,1.2
	c1.6,0,3.2,0,4.8,0l28.1,0c5,0,3.5-2.2,1.9-4.8L167,291.5c-1.2-2.1-2.3-4.1-3.5-6.1c-1.4-2.5-3.4-8.5-6.9-6.3
	c-0.8,0.5-4.4,7.8-5,8.9c-2.3,4.1-4.3,8.2-6.6,12.3C143.9,302.3,138.6,311.2,138.8,313z"/>
<path class="st0" d="M244.3,258.6c0.7,1.8,5.1,5.8,6.2,7.8c-1,1.1-8.2,6.9-9.7,7.5l-5.7-8l-9.6,6.2l4.9,8.4l10.4-6.6
	c1.7,1.9,4.8,7.2,6.1,8.4c2.1-1.4,9.2-6.5,10.3-8.1c-0.5-0.9-5.5-6.6-6.6-7.9c1.4-0.8,8.3-7.1,9-8.4c-2-2-5-4.5-6.6-6.8
	C251.4,251.8,246.6,257.6,244.3,258.6z"/>
<path class="st0" d="M134.3,227.3c2.3,0.8,7.9,2.7,10.6,2.8c1.4-2.5,0.5-8.5,4.3-8.1c3.9,0.4,0.9,6.4,0.6,9.1l4.7,0.5
	c0.4-3.4,2.4-20-0.2-22c-1.6-1.2-8.2-4.2-10-5c-1.2,2-1.2,6.2-4.3,12C138.8,218.5,134.8,225.8,134.3,227.3z"/>
<path class="st0" d="M237.5,100.1l-11.3,0c0.7,0.9,7.7,5.8,9.1,6.7l-3.5,10.5c1.5-0.5,7.2-5.1,9-6.3c1.6,0.5,7.3,5.6,9.2,6.3
	l-3.4-10.6c1.4-0.9,8.4-5.9,9.1-6.7l-11.3,0L241,89.4c-0.2,0.3,0.1-0.2-0.2,0.5L237.5,100.1z"/>
<path class="st0" d="M74.3,100.1l-11.3,0l9.1,6.7l-3.4,10.6c2-0.8,7.6-5.8,9.2-6.4l9.1,6.6l-3.4-10.8c2-1.7,8.1-5.5,9.1-6.7l-10.9,0
	c-0.7-0.2-0.6-0.7-1.2-2.4l-2.6-8.2c-0.2,0.2,0-0.1-0.3,0.5L74.3,100.1z"/>
<path class="st0" d="M27.2,206.6c0.1,1.1,1.6,4.6,2,5.7c0.8,1.9,1.7,3.7,2.4,5.6l-2.2,1.2c-1.7,0.7-5.6,2.8-6.9,3.1
	c0.8,2.1,1.9,4.2,2.9,6c0.9,1.8,2.4,4.1,3.1,5.8c1-0.3,3.5-1.9,4.5-2.5c1.4-0.8,3.2-2,4.6-2.6c-2.1-2.9-4.2-8.3-5.8-11l8.9-4.1
	c-0.1-0.5-4.1-10.2-4.3-10.5L27.2,206.6z"/>
<path class="st0" d="M287.9,217.9l-9.1-4.2c-0.7,1.8-1.7,3.6-2.5,5.1c-0.6,1-2.4,4.2-2.6,5.1c1.3,1.1,6.5,3.6,7.9,4.6l0.5,0.5
	c-2,3.7-4.4,7-6.4,10.3l8.3,5.8c1-0.9,6.6-9.7,7-11.2l-8.7-4.9l4.2-8.2C286.9,220,287.5,218.5,287.9,217.9z"/>
<path class="st0" d="M35.8,245.3c0.4,1.1,3,4.3,3.8,5.4c1,1.4,3,4.2,4.2,5c2.7-1.9,5.2-4.7,7.9-6.6c1.8,1.6,6.2,7.5,8.4,8.9l6.7-6.7
	c-0.6-1.5-6.2-6.3-7.4-8.5c-1.6,0.6-5.7,4.9-7.7,6.1c-1.3-1.1-6.6-8-7.5-9.7C41.7,241.2,38.3,243.2,35.8,245.3z"/>
<path class="st0" d="M230.5,35.8c-2-0.7-6.9-3.9-10.8-5.5l-4.4,9c1.7,0.6,3.6,1.7,5,2.4c1.1,0.6,4.1,2.4,5.1,2.6l5-8.4
	c2.3,0.8,8.1,5.2,10.4,6.5c0.8-0.9,5.5-7.5,5.8-8.4c-1.3-1.2-9.6-6.6-11.1-7c-0.7,1.5-1.6,2.9-2.4,4.3L230.5,35.8z"/>
<path class="st0" d="M135.4,297.4c-2-0.5-4.1-0.8-6.2-1.3c-2-0.4-4-1-5.9-1.4l-2.6,10.1c1.2,0.7,10.8,2.7,12.7,2.9L135.4,297.4z"/>
<path class="st0" d="M73,282.4c1.1,1.4,9,6.1,11.1,7.2l5.2-9.1c-3.1-1.5-9.4-6.1-10.5-6.5L73,282.4z"/>
<path class="st0" d="M111.5,291.1c-0.2-0.2,0.1,0-0.5-0.3c0,0-0.1-0.1-0.2-0.1c-0.1,0-0.1-0.1-0.2-0.1c-0.4-0.2-0.4-0.1-0.7-0.3
	c-3.6-1.3-6.7-2.9-9.8-4.1l-4.3,9.6c1.7,0.5,4.1,1.8,6,2.6c1.8,0.7,4.3,1.9,6.2,2.3L111.5,291.1z"/>
<path class="st0" d="M196.4,294.7l2.7,10.1c2.2-0.6,4.4-1.2,6.5-1.9l6.1-2.2l-3.5-9.6c-1.7,0.3-4,1.3-5.8,1.9
	C200.4,293.6,198.4,294.1,196.4,294.7z"/>
<path class="st0" d="M300.6,170.6l10.3,0.8c0.2-4.2,0.8-9.1,0.5-13.2l-10.2,0C301,162.5,300.9,166.4,300.6,170.6z"/>
<path class="st0" d="M52.6,265.6c2.4,1.8,6.5,6.5,9.6,8.7c0.7-0.4,6.3-7.1,6.7-7.9l-9.1-8.2L52.6,265.6z"/>
<path class="st0" d="M28.7,82.2c0.5,0.7,1.3,1,2,1.4l6.9,3.9l6.5-10.3c-0.6-0.7-7.5-5.5-8.5-5.9L28.7,82.2z"/>
<path class="st0" d="M208.2,25.5l11.3,4.6c0.1-0.1,0.2-0.2,0.3-0.4l1.9-4.1c0.6-1.3,1.8-3.5,2.1-4.8c-3.8-1.6-8-3.7-12.1-4.9
	L208.2,25.5z"/>
<path class="st0" d="M20.7,182.8L19,170.6l-10,0.8c-0.4,1.8,1.1,10.7,1.4,13L20.7,182.8z"/>
<path class="st0" d="M259.7,258c0.9,1,6.6,6.8,7.5,7.2c1.3-1.2,8.1-8.3,8.7-9.7c-2-1.2-6.1-5.4-8-6.5
	C266.9,250.6,261,257.3,259.7,258z"/>
<path class="st0" d="M18.6,158.2c-0.2-4.2,0.4-8.2,0.5-12.3c-2.6,0-8.1-1.1-10.3-0.7l-0.7,12.9l0.3,0L18.6,158.2z"/>
<path class="st0" d="M250.6,50.1c2.3,1.2,7.3,6.8,9.2,8.2c0.9-1.1,2.4-2.5,3.5-3.6c1-1,3-2.6,3.5-3.9l-9.4-8.5
	C256.3,43,251.8,48.7,250.6,50.1z"/>
<path class="st0" d="M282.4,87.5c0.2,0.7,4.4,8.2,5.5,10.9c0.4-0.1,8.4-3.6,9.2-4.4c-0.5-1.8-5.2-10.7-6.1-11.5L282.4,87.5z"/>
<path class="st0" d="M172.2,17.5L173,7.2l-13.1-0.6l0,10.4C164.2,17.1,168.1,17.3,172.2,17.5z"/>
<path class="st0" d="M219.7,286.3l4.3,9.4c3.9-1.5,8.1-4.1,11.6-6l-5.1-8.9c-1.3,0.4-3.9,2.1-5.3,2.8
	C223.4,284.6,221.4,285.5,219.7,286.3z"/>
<path class="st0" d="M184.4,19.2c3.5,0,8.6,1.9,12,2.5l2.6-9.9c-3.8-0.4-8.8-2.6-13-2.7L184.4,19.2z"/>
<path class="st0" d="M20.8,133.7c0.1-2.4,1.9-9.8,2.6-12l-9.8-2.6c-0.6,0.9-2.9,11.3-2.9,12.9L20.8,133.7z"/>
<path class="st0" d="M287.9,217.9l9.4,4.3c1-2.1,4.6-10.2,5-12.2l-9.6-3.4C291.5,209.9,289.5,215.1,287.9,217.9z"/>
<path class="st0" d="M13.5,197.5c0.5,2.8,2.8,9.5,3.8,12.5l9.7-3.4c-0.7-1.9-1.3-3.7-1.9-5.7c-0.5-1.6-1.4-4.3-1.7-6L13.5,197.5z"/>
<path class="st0" d="M296.3,194.8l9.8,2.6l0.6-1.5c0.8-3,2.2-8.8,2.4-11.4l-10.1-1.7C298.8,184.7,296.9,193.6,296.3,194.8z"/>
<path class="st0" d="M292.6,109.9c0.8,1.7,1.4,4,2,5.8c0.6,1.8,1.4,4.1,1.7,6l9.8-2.6c-0.2-1.7-1.2-4.7-1.8-6.4
	c-0.7-2.2-1.4-4.2-2.1-6.1L292.6,109.9z"/>
<path class="st0" d="M133.8,9.1c-0.2,0.6,0.5,3.9,0.6,4.7c0.3,1.7,0.7,3.6,0.8,5.2l12.2-1.6l-0.8-9.9C145,7.2,135,8.5,133.8,9.1z"/>
<path class="st0" d="M84.2,27c1.1,2.2,4.4,7.3,4.9,8.8c2.9-1.2,7.2-4.3,11-5.6l-4.4-9.3C92,22.9,87.9,24.6,84.2,27z"/>
<path class="st0" d="M43.9,60.8c1.9,1.4,6.2,5.6,7.8,6.5l8.2-9l-7.2-7.2c-1.3,1.6-3,3-4.5,4.7C46.8,57.5,45.3,59.1,43.9,60.8z"/>
<path class="st0" d="M108.1,15.8c0.6,1.7,2.9,8.6,3.6,9.6c1.8-0.8,9.5-3.3,11.5-3.6l-2.6-9.9C118.4,12.2,110.6,15,108.1,15.8z"/>
<path class="st0" d="M268.2,67.4l7.5,9.7l8.2-5.7c-0.7-1.6-6.9-9.6-8-10.4L268.2,67.4z"/>
<path class="st0" d="M62.6,42.1l6.5,7.9l9.7-7.4L73,34.2c-1.7,1.3-3.5,2.5-5.2,3.8C65.9,39.4,64.4,40.7,62.6,42.1z"/>
<path class="st0" d="M27,109.9c1.1-3.3,3.2-8.5,4.8-11.3c-1.7-0.7-8.2-4-9.4-4.3c-0.8,2-1.7,3.8-2.5,5.9c-0.7,1.6-2,4.5-2.3,6.1
	L27,109.9z"/>
<path class="st0" d="M300.6,145.9l10.2-1l-1.5-12.9c-1.7-0.2-8,1.4-10.2,1.6C299.6,137.1,300.7,142.6,300.6,145.9z"/>
<path class="st0" d="M44.3,77.3l8.1,5.7c0.8-1.4,2.3-3.4,3.3-4.6c1.3-1.6,2.4-2.9,3.6-4.5c-0.8-0.8-6.8-5.9-7.6-6.2
	C50.2,69,45.4,75.4,44.3,77.3z"/>
<path class="st0" d="M18.6,158.2l0.5,12.2c2.5,0.1,5-0.4,7.4-0.5c0.8,0,1.8-0.1,2.5-0.5c-0.5-3.1,0-8.1-0.4-10.6
	c-0.2-1.1-1.6-0.7-4.5-0.7C22.3,158.2,20.5,158.2,18.6,158.2z"/>
<path class="st0" d="M184.4,19.2c-3.5-0.8-8.4-1.3-12.2-1.7l-0.9,10.1c2.1,0,10.7,1.4,11.2,1.3L184.4,19.2z"/>
<path class="st0" d="M79.1,42.5l5.6,8.1l9.6-5.9L89.3,36C87.8,36.4,80.1,41.4,79.1,42.5z"/>
<path class="st0" d="M267.5,83c1,1.9,4.3,6.3,6,9.6l8.6-5c-0.9-2.4-5-7.8-6.5-10.3L267.5,83z"/>
<path class="st0" d="M23.4,121.7l9.6,2.5c0.2-0.3,3.3-10.3,3.4-10.7l-9.3-3.6c-0.4,1.6-1.3,4-1.9,5.8
	C24.6,117.1,23.5,120.2,23.4,121.7z"/>
<path class="st0" d="M235.2,50.9c1.3,0.6,3.4,2.3,4.5,3.2c1.4,1.1,3.1,2.7,4.4,3.5c0.8-0.6,6-6.8,6.3-7.7c-1.4-0.7-7.6-6.4-9.7-7.2
	C239.7,44.8,235.9,49.2,235.2,50.9z"/>
<path class="st0" d="M292.7,206.6c0.5-1.8,1.3-3.9,1.9-5.8c0.6-2,1.1-4,1.8-6l-9.6-2.5c-0.6,1.3-1.1,3.9-1.6,5.3
	c-0.6,1.8-1.4,3.7-1.8,5.4L292.7,206.6z"/>
<path class="st0" d="M20.8,133.7c-0.6,4.1-1.3,7.8-1.6,12.2l9.9,0.8c0-3.9,1.1-7.8,1.4-11.3L20.8,133.7z"/>
<path class="st0" d="M31.8,98.6l9.1,4.2c1.5-3.3,3.4-7.2,5.2-10.1l-8.5-4.9c-1,1.2-3.5,6.1-4.4,8C32.8,96.6,32.3,97.9,31.8,98.6z"/>
<path class="st0" d="M208.2,25.5l-11.8-3.6l-2.6,9.6l10.8,3.4c0.2-0.2,0.1-0.1,0.3-0.4C205.5,33.2,207.4,26.9,208.2,25.5z"/>
<path class="st0" d="M300.6,170.6l-10-0.9l-1.3,11.2c0.7,0.4,8.4,1.7,9.8,1.7L300.6,170.6z"/>
<path class="st0" d="M123.5,21.7l2.5,9.7l11.1-2.5l-1.6-9.5c-0.3-0.1,0.2-0.1-0.6-0.1l-5.4,1C127.4,20.7,125.3,21.2,123.5,21.7z"/>
<path class="st0" d="M252.8,65.4c1,1.5,6,6,7.5,8.4l7.7-6.4c-0.9-1.5-6.9-8-8.2-8.9L252.8,65.4z"/>
<polygon class="st0" points="147.7,17.4 148.5,27.6 159.7,27 159.8,17 "/>
<path class="st0" d="M292.6,109.9c-0.4-0.7-0.7-1.8-1-2.7c-0.4-1.1-0.7-1.8-1.2-2.9c-0.8-1.9-1.7-3.9-2.5-5.6l-8.4,3.9
	c0,0-0.1,0.1-0.1,0.1L279,103l4.4,10.3L292.6,109.9z"/>
<path class="st0" d="M286.7,124.3c0.7,3.2,2.1,7.6,2.4,11.1l9.8-1.7c-0.3-3.5-1.8-8.5-2.5-11.8L286.7,124.3z"/>
<path class="st0" d="M60.3,58.3c0.4,0.8,5.7,5.9,6.8,6.9l8.4-7.7l-6.2-7.4C67.8,50.9,60.9,57.3,60.3,58.3z"/>
<path class="st0" d="M301.1,158.2l-0.6-12.3c-2,0.4-8.9,0.4-9.9,1.2l0.5,11L301.1,158.2z"/>
<path class="st0" d="M100.4,30.2l4,8.9l10.4-4.4l-3.3-9.2C109.9,25.9,101.6,29.3,100.4,30.2z"/>
<path class="st0" d="M20.7,182.8c1,4,1.5,8.1,2.6,11.9l9.6-2.4l-2.5-11L20.7,182.8z"/>
<path class="st0" d="M69.2,266.4c1,1.2,8,6.6,9.6,7.4l5.6-7.8c-1.1-1.2-3.2-2.4-4.6-3.5c-1.4-1.1-3.1-2.6-4.4-3.5
	C74.8,259.5,69.9,265.5,69.2,266.4z"/>
<path class="st0" d="M89.3,280.6c2,0.9,9,5.2,10.9,5.5l4.1-8.7l-10.2-5.2L89.3,280.6z"/>
<path class="st0" d="M204.9,281.7l3.3,9.1c2.4-0.6,9.3-3.5,11.2-4.7l-4.1-8.8L204.9,281.7z"/>
<path class="st0" d="M184.5,297.3c1.3-0.5,4.5-0.9,6.1-1.2c2.1-0.5,3.9-1,5.8-1.4l-2.6-9.3c-1.4,0-4,0.9-5.5,1.2
	c-1.6,0.3-3.9,0.7-5.3,1.1C182.6,288.6,184.1,295.7,184.5,297.3z"/>
<path class="st0" d="M37.7,228.9c0.3,0.9,5.3,9.2,6.6,10.2l7.9-5.5c-1.7-3.1-4.5-6.3-6-9.6L37.7,228.9z"/>
<path class="st0" d="M260.6,242.6l7.6,6.3c1.3-2.1,5.4-6.4,7.2-9.7l-7.9-5.6c-0.9,0.7-2.7,3.4-3.5,4.5
	C263.1,239.4,261.1,241.6,260.6,242.6z"/>
<path class="st0" d="M111.7,290.9c1.1,0.7,9.7,3.5,11.5,3.6l2.6-9.3c-3.7-0.8-8.6-2.8-10.8-3.3L111.7,290.9z"/>
<polygon class="st0" points="135.4,297.4 140.6,298.1 145.5,289 137.1,287.7 "/>
<path class="st0" d="M184.5,297.3l-7.5,1.1l0.3,1.2c0.3,0.5,0.4,0.7,0.7,1.2c0.5,0.9,0.9,1.6,1.4,2.4c0.8,1.4,1.9,3.7,2.9,4.9
	l3.9-0.6L184.5,297.3z"/>
<path class="st0" d="M163.3,303.1l-2.9-6c-0.6-1.3-0.8-2.2-2-2c-0.3,0.7,4.3,9.5,4.8,10.2l-1.1,0.9l1,1.9c-0.4,0.6-0.7,0.9-1,1.7
	l9.8,0c-0.9-1.7-3.2-4.8-6.1-4.1l-0.3-1.2C163.7,305,164.4,305.3,163.3,303.1z"/>
</svg>
